<svg xmlns="http://www.w3.org/2000/svg" xmlns:xlink="http://www.w3.org/1999/xlink" width="500" zoomAndPan="magnify" viewBox="0 0 375 374.999991" height="500" preserveAspectRatio="xMidYMid meet" version="1.0"><defs><g/><clipPath id="9ce987883f"><rect x="0" width="320" y="0" height="154"/></clipPath></defs><rect x="-37.5" width="450" fill="#ffffff" y="-37.499999" height="449.999989" fill-opacity="1"/><rect x="-37.5" width="450" fill="#d2d5ff" y="-37.499999" height="449.999989" fill-opacity="1"/><g fill="#fcff79" fill-opacity="1"><g transform="translate(83.789921, 266.556647)"><g><path d="M 32.4375 -25.375 C 19.789062 -8.394531 8.773438 0.09375 -0.609375 0.09375 C -5.171875 0.09375 -8.078125 -1.128906 -9.328125 -3.578125 C -9.679688 -4.273438 -9.859375 -4.992188 -9.859375 -5.734375 C -9.859375 -6.472656 -9.722656 -7.070312 -9.453125 -7.53125 C -9.191406 -8 -8.859375 -8.378906 -8.453125 -8.671875 C -7.734375 -9.222656 -6.832031 -9.5 -5.75 -9.5 C -5.3125 -9.5 -4.835938 -9.335938 -4.328125 -9.015625 C -3.828125 -8.703125 -3.578125 -8.222656 -3.578125 -7.578125 C -3.578125 -6.941406 -3.820312 -6.40625 -4.3125 -5.96875 C -4.8125 -5.53125 -5.445312 -5.3125 -6.21875 -5.3125 C -6.988281 -5.3125 -7.617188 -5.457031 -8.109375 -5.75 L -8.109375 -5.53125 C -8.109375 -4.226562 -7.488281 -3.171875 -6.25 -2.359375 C -5.019531 -1.546875 -3.550781 -1.140625 -1.84375 -1.140625 C -0.144531 -1.140625 1.265625 -1.257812 2.390625 -1.5 C 3.523438 -1.75 4.695312 -2.210938 5.90625 -2.890625 C 7.113281 -3.578125 8.40625 -4.53125 9.78125 -5.75 C 11.164062 -6.976562 12.707031 -8.554688 14.40625 -10.484375 C 16.113281 -12.421875 18.023438 -14.769531 20.140625 -17.53125 L 27.421875 -27.296875 C 25.796875 -28.367188 24.984375 -29.644531 24.984375 -31.125 C 24.984375 -32.375 25.550781 -33.453125 26.6875 -34.359375 C 27.726562 -35.203125 28.765625 -35.625 29.796875 -35.625 C 30.828125 -35.625 31.34375 -35.476562 31.34375 -35.1875 C 31.34375 -35.039062 31.171875 -34.925781 30.828125 -34.84375 C 29.460938 -34.601562 28.4375 -34.066406 27.75 -33.234375 C 27.070312 -32.410156 26.734375 -31.546875 26.734375 -30.640625 C 26.734375 -29.742188 27.210938 -28.976562 28.171875 -28.34375 L 28.78125 -29.171875 C 33.539062 -35.597656 37.460938 -40.378906 40.546875 -43.515625 C 45.515625 -48.628906 50.367188 -52.816406 55.109375 -56.078125 L 56.90625 -57.25 C 53.53125 -59.3125 48.335938 -60.34375 41.328125 -60.34375 C 34.296875 -60.34375 27.46875 -58.976562 20.84375 -56.25 C 14.789062 -53.78125 9.863281 -50.507812 6.0625 -46.4375 C 2.3125 -42.457031 0.492188 -38.53125 0.609375 -34.65625 C 0.671875 -32.476562 1.367188 -30.820312 2.703125 -29.6875 C 3.804688 -28.757812 5.15625 -28.296875 6.75 -28.296875 C 8.351562 -28.296875 10.046875 -28.757812 11.828125 -29.6875 C 13.617188 -30.625 15.34375 -31.820312 17 -33.28125 C 18.65625 -34.75 20.21875 -36.390625 21.6875 -38.203125 C 23.15625 -40.023438 24.441406 -41.835938 25.546875 -43.640625 C 27.929688 -47.484375 29.253906 -50.476562 29.515625 -52.625 C 29.609375 -53.613281 29.789062 -54.109375 30.0625 -54.109375 C 30.34375 -54.109375 30.492188 -54 30.515625 -53.78125 C 30.546875 -53.5625 30.578125 -52.914062 30.609375 -51.84375 C 30.640625 -50.769531 30.421875 -49.269531 29.953125 -47.34375 C 29.484375 -45.425781 28.773438 -43.515625 27.828125 -41.609375 C 26.890625 -39.710938 25.710938 -37.890625 24.296875 -36.140625 C 22.890625 -34.398438 21.285156 -32.863281 19.484375 -31.53125 C 15.535156 -28.59375 11.175781 -27.125 6.40625 -27.125 C 4.632812 -27.125 3.050781 -27.789062 1.65625 -29.125 C 0.113281 -30.601562 -0.691406 -32.445312 -0.765625 -34.65625 C -0.835938 -36.875 -0.320312 -39.097656 0.78125 -41.328125 C 1.882812 -43.566406 3.429688 -45.679688 5.421875 -47.671875 C 7.421875 -49.671875 9.773438 -51.503906 12.484375 -53.171875 C 15.203125 -54.847656 18.132812 -56.28125 21.28125 -57.46875 C 27.90625 -60.019531 34.65625 -61.296875 41.53125 -61.296875 C 48.40625 -61.296875 54.023438 -60.238281 58.390625 -58.125 C 61.898438 -60.070312 64.53125 -61.046875 66.28125 -61.046875 C 66.832031 -61.046875 67.113281 -60.925781 67.125 -60.6875 C 67.132812 -60.457031 67.070312 -60.285156 66.9375 -60.171875 C 66.8125 -60.054688 66.390625 -59.941406 65.671875 -59.828125 C 63.953125 -59.503906 62.046875 -58.660156 59.953125 -57.296875 C 64.628906 -54.535156 66.96875 -50.753906 66.96875 -45.953125 C 66.96875 -42.410156 65.601562 -38.96875 62.875 -35.625 C 60.226562 -32.425781 56.753906 -29.820312 52.453125 -27.8125 C 48.035156 -25.78125 43.488281 -24.765625 38.8125 -24.765625 C 36.507812 -24.765625 34.382812 -24.96875 32.4375 -25.375 Z M 33.265625 -26.46875 C 35.097656 -26.09375 36.832031 -25.90625 38.46875 -25.90625 C 40.113281 -25.90625 41.816406 -26.117188 43.578125 -26.546875 C 45.335938 -26.984375 47.066406 -27.628906 48.765625 -28.484375 C 50.460938 -29.347656 52.097656 -30.414062 53.671875 -31.6875 C 55.242188 -32.96875 56.625 -34.46875 57.8125 -36.1875 C 60.425781 -39.90625 61.734375 -44.109375 61.734375 -48.796875 C 61.734375 -51.867188 60.617188 -54.335938 58.390625 -56.203125 C 55.191406 -53.878906 51.859375 -50.664062 48.390625 -46.5625 C 44.929688 -42.46875 42.054688 -38.789062 39.765625 -35.53125 Z M 33.265625 -26.46875 "/></g></g></g><g fill="#fcff79" fill-opacity="1"><g transform="translate(136.561108, 266.556647)"><g><path d="M 7.546875 -3.421875 C 7.546875 -2.066406 8.117188 -1.390625 9.265625 -1.390625 C 10.410156 -1.390625 11.671875 -1.738281 13.046875 -2.4375 C 14.429688 -3.132812 15.84375 -4.019531 17.28125 -5.09375 C 18.726562 -6.175781 20.148438 -7.367188 21.546875 -8.671875 L 25.328125 -12.46875 C 26.492188 -13.664062 27.5 -14.742188 28.34375 -15.703125 L 30.125 -17.703125 L 31 -16.96875 C 30.445312 -16.46875 29.707031 -15.695312 28.78125 -14.65625 L 25.640625 -11.15625 C 18.546875 -3.65625 12.441406 0.09375 7.328125 0.09375 C 5.671875 0.09375 4.335938 -0.3125 3.328125 -1.125 C 2.328125 -1.945312 1.828125 -3.039062 1.828125 -4.40625 C 1.828125 -8.738281 8.132812 -15.132812 20.75 -23.59375 C 14.59375 -24.601562 10.335938 -25.632812 7.984375 -26.6875 C 6.054688 -22.726562 3.101562 -18.703125 -0.875 -14.609375 C -1.800781 -13.648438 -2.375 -13.125 -2.59375 -13.03125 C -2.8125 -12.945312 -2.945312 -12.882812 -3 -12.84375 C -3.0625 -12.800781 -3.109375 -12.878906 -3.140625 -13.078125 C -3.171875 -13.285156 -3.171875 -13.4375 -3.140625 -13.53125 C -3.109375 -13.632812 -3.050781 -13.742188 -2.96875 -13.859375 C -1.601562 -15.398438 -0.335938 -16.882812 0.828125 -18.3125 C 3.535156 -21.6875 5.523438 -24.679688 6.796875 -27.296875 C 5.753906 -27.960938 5.160156 -28.671875 5.015625 -29.421875 C 4.867188 -30.179688 4.875 -30.890625 5.03125 -31.546875 C 5.195312 -32.203125 5.453125 -32.789062 5.796875 -33.3125 C 6.554688 -34.445312 7.429688 -35.015625 8.421875 -35.015625 C 10.242188 -35.015625 11.15625 -34.34375 11.15625 -33 C 11.15625 -32.332031 11.023438 -31.769531 10.765625 -31.3125 L 9.984375 -29.953125 C 9.460938 -29.285156 9.203125 -28.515625 9.203125 -27.640625 C 9.203125 -27.117188 10.3125 -26.625 12.53125 -26.15625 C 14.757812 -25.695312 16.335938 -25.378906 17.265625 -25.203125 C 19.296875 -24.828125 20.910156 -24.609375 22.109375 -24.546875 C 22.921875 -24.515625 23.328125 -24.296875 23.328125 -23.890625 C 23.328125 -23.628906 22.851562 -23.117188 21.90625 -22.359375 C 20.96875 -21.609375 19.929688 -20.691406 18.796875 -19.609375 C 17.660156 -18.535156 16.550781 -17.410156 15.46875 -16.234375 C 14.394531 -15.054688 13.378906 -13.859375 12.421875 -12.640625 C 11.460938 -11.421875 10.617188 -10.242188 9.890625 -9.109375 C 8.328125 -6.671875 7.546875 -4.773438 7.546875 -3.421875 Z M 7.546875 -3.421875 "/></g></g></g><g fill="#fcff79" fill-opacity="1"><g transform="translate(163.523307, 266.556647)"><g><path d="M 19.625 -7.015625 C 18.539062 -7.015625 17.753906 -7.453125 17.265625 -8.328125 C 13.804688 -4.398438 10.070312 -1.796875 6.0625 -0.515625 C 4.726562 -0.109375 3.425781 0.09375 2.15625 0.09375 C 0.894531 0.09375 -0.179688 -0.0507812 -1.078125 -0.34375 C -1.984375 -0.632812 -2.726562 -1.039062 -3.3125 -1.5625 C -5.664062 -3.601562 -5.898438 -7.109375 -4.015625 -12.078125 C -3.285156 -14.023438 -2.347656 -15.84375 -1.203125 -17.53125 C -0.0546875 -19.21875 1.234375 -20.78125 2.671875 -22.21875 C 4.117188 -23.65625 5.671875 -24.941406 7.328125 -26.078125 C 11.078125 -28.609375 14.738281 -29.875 18.3125 -29.875 C 19.851562 -29.875 21.179688 -29.472656 22.296875 -28.671875 C 23.421875 -27.867188 24.023438 -26.71875 24.109375 -25.21875 C 24.203125 -23.726562 24.113281 -22.328125 23.84375 -21.015625 C 23.582031 -19.703125 23.191406 -18.394531 22.671875 -17.09375 C 21.628906 -14.414062 20.144531 -11.882812 18.21875 -9.5 C 18.425781 -8.65625 18.988281 -8.234375 19.90625 -8.234375 C 20.820312 -8.234375 21.691406 -8.441406 22.515625 -8.859375 C 23.347656 -9.285156 24.175781 -9.8125 25 -10.4375 C 25.832031 -11.0625 26.644531 -11.757812 27.4375 -12.53125 C 28.238281 -13.300781 28.976562 -14.035156 29.65625 -14.734375 L 31.3125 -16.5625 C 31.769531 -17.113281 32.101562 -17.492188 32.3125 -17.703125 L 33.265625 -16.96875 C 32.890625 -16.613281 32.410156 -16.113281 31.828125 -15.46875 C 31.242188 -14.832031 30.59375 -14.148438 29.875 -13.421875 C 29.875 -13.421875 29.101562 -12.664062 27.5625 -11.15625 C 24.5625 -8.394531 21.914062 -7.015625 19.625 -7.015625 Z M 1.53125 -1.5625 C 1.988281 -1.332031 2.640625 -1.21875 3.484375 -1.21875 C 5.378906 -1.21875 7.804688 -2.28125 10.765625 -4.40625 C 13.035156 -6.03125 15.054688 -7.90625 16.828125 -10.03125 L 16.828125 -10.203125 C 16.828125 -12.671875 17.757812 -14.53125 19.625 -15.78125 C 20.113281 -16.132812 20.578125 -16.382812 21.015625 -16.53125 C 22.410156 -19.488281 23.066406 -21.914062 22.984375 -23.8125 C 22.804688 -26.800781 21.703125 -28.296875 19.671875 -28.296875 C 16.234375 -28.296875 11.421875 -24.429688 5.234375 -16.703125 C 1.253906 -11.703125 -0.617188 -7.804688 -0.390625 -5.015625 C -0.390625 -3.410156 0.25 -2.257812 1.53125 -1.5625 Z M 1.53125 -1.5625 "/></g></g></g><g fill="#fcff79" fill-opacity="1"><g transform="translate(192.665318, 266.556647)"><g><path d="M 20.6875 -39.40625 C 20.269531 -39.03125 19.796875 -38.734375 19.265625 -38.515625 C 18.742188 -38.304688 18.15625 -38.203125 17.5 -38.203125 C 16.851562 -38.203125 16.28125 -38.453125 15.78125 -38.953125 C 15.289062 -39.460938 15.046875 -40.035156 15.046875 -40.671875 C 15.046875 -41.316406 15.160156 -41.882812 15.390625 -42.375 C 15.617188 -42.875 15.9375 -43.3125 16.34375 -43.6875 C 17.25 -44.5625 18.195312 -45 19.1875 -45 C 20.175781 -45 20.898438 -44.726562 21.359375 -44.1875 C 21.828125 -43.65625 22.0625 -43.066406 22.0625 -42.421875 C 22.0625 -41.785156 21.9375 -41.21875 21.6875 -40.71875 C 21.445312 -40.226562 21.113281 -39.789062 20.6875 -39.40625 Z M 7.453125 -29.515625 C 7.742188 -29.460938 8.296875 -29.4375 9.109375 -29.4375 C 10.128906 -29.4375 11.003906 -29.4375 11.734375 -29.4375 C 13.003906 -29.4375 13.847656 -29.460938 14.265625 -29.515625 L -7.8125 -1.046875 L -14.296875 6.96875 C -6.828125 3.363281 -1.070312 -0.00390625 2.96875 -3.140625 C 6.070312 -5.554688 8.757812 -8.046875 11.03125 -10.609375 C 13.300781 -13.179688 15.289062 -15.546875 17 -17.703125 L 17.875 -16.96875 C 12.582031 -10.332031 7.554688 -5.226562 2.796875 -1.65625 C -0.546875 0.8125 -3.832031 2.890625 -7.0625 4.578125 L -15.921875 8.9375 C -21.960938 16.207031 -26.492188 21.222656 -29.515625 23.984375 C -32.535156 26.742188 -34.910156 28.710938 -36.640625 29.890625 C -38.367188 31.066406 -40.019531 31.972656 -41.59375 32.609375 C -44.320312 33.742188 -47.460938 34.3125 -51.015625 34.3125 C -52.847656 34.3125 -54.066406 33.6875 -54.671875 32.4375 C -54.816406 32.09375 -54.890625 31.535156 -54.890625 30.765625 C -54.890625 29.992188 -54.394531 28.914062 -53.40625 27.53125 C -52.425781 26.15625 -50.710938 24.625 -48.265625 22.9375 C -43.328125 19.507812 -34.835938 15.296875 -22.796875 10.296875 L -6.015625 -10.90625 C 0.898438 -20 4.863281 -25.289062 5.875 -26.78125 C 6.894531 -28.28125 7.421875 -29.191406 7.453125 -29.515625 Z M -24.28125 12.078125 C -34.945312 16.640625 -42.429688 20.347656 -46.734375 23.203125 C -51.210938 26.160156 -53.453125 28.890625 -53.453125 31.390625 C -53.453125 31.710938 -53.253906 32.082031 -52.859375 32.5 C -52.472656 32.925781 -51.785156 33.140625 -50.796875 33.140625 C -49.804688 33.140625 -48.800781 33.035156 -47.78125 32.828125 C -46.769531 32.628906 -45.703125 32.257812 -44.578125 31.71875 C -43.460938 31.175781 -42.25 30.421875 -40.9375 29.453125 C -39.632812 28.484375 -38.164062 27.21875 -36.53125 25.65625 C -34.90625 24.101562 -33.09375 22.207031 -31.09375 19.96875 Z M -24.28125 12.078125 "/></g></g></g><g fill="#fcff79" fill-opacity="1"><g transform="translate(206.461444, 266.556647)"><g><path d="M 16.84375 -3.765625 C 15 -2.585938 13.007812 -1.617188 10.875 -0.859375 C 8.738281 -0.109375 6.710938 0.265625 4.796875 0.265625 C 2.878906 0.265625 1.414062 0.0664062 0.40625 -0.328125 C -0.59375 -0.722656 -1.410156 -1.269531 -2.046875 -1.96875 C -4.773438 -4.925781 -4.757812 -9.300781 -2 -15.09375 C -0.8125 -17.644531 0.984375 -19.972656 3.390625 -22.078125 C 5.804688 -24.191406 7.929688 -25.769531 9.765625 -26.8125 C 13.316406 -28.851562 16.644531 -29.875 19.75 -29.875 C 22.832031 -29.875 24.445312 -28.910156 24.59375 -26.984375 C 24.789062 -23.878906 21.007812 -20.492188 13.25 -16.828125 C 10.40625 -15.492188 6.816406 -14.113281 2.484375 -12.6875 C 0.765625 -9.894531 -0.09375 -7.617188 -0.09375 -5.859375 C -0.09375 -4.097656 0.363281 -2.847656 1.28125 -2.109375 C 2.195312 -1.367188 3.535156 -1 5.296875 -1 C 7.054688 -1 8.957031 -1.375 11 -2.125 C 13.050781 -2.882812 14.972656 -3.847656 16.765625 -5.015625 C 18.554688 -6.179688 20.175781 -7.445312 21.625 -8.8125 C 23.082031 -10.175781 24.367188 -11.484375 25.484375 -12.734375 C 26.597656 -13.984375 27.507812 -15.066406 28.21875 -15.984375 C 28.9375 -16.898438 29.425781 -17.472656 29.6875 -17.703125 L 30.609375 -16.96875 C 30.234375 -16.644531 29.660156 -15.988281 28.890625 -15 C 28.117188 -14.007812 27.144531 -12.878906 25.96875 -11.609375 C 24.789062 -10.347656 23.4375 -9.019531 21.90625 -7.625 C 20.382812 -6.226562 18.695312 -4.941406 16.84375 -3.765625 Z M 3.484375 -14.21875 C 12.265625 -17.300781 17.921875 -20.367188 20.453125 -23.421875 C 21.296875 -24.429688 21.71875 -25.414062 21.71875 -26.375 C 21.71875 -28.007812 20.960938 -28.828125 19.453125 -28.828125 C 16.773438 -28.828125 13.429688 -26.484375 9.421875 -21.796875 C 6.628906 -18.546875 4.648438 -16.019531 3.484375 -14.21875 Z M 3.484375 -14.21875 "/></g></g></g><g fill="#fcff79" fill-opacity="1"><g transform="translate(232.98768, 266.556647)"><g><path d="M 22.5 -26.203125 C 22.4375 -27.890625 21.375 -28.734375 19.3125 -28.734375 C 15.101562 -28.734375 9.65625 -24.34375 2.96875 -15.5625 C 0.207031 -11.90625 -1.171875 -8.59375 -1.171875 -5.625 C -1.171875 -4.34375 -0.820312 -3.367188 -0.125 -2.703125 C 1.09375 -1.566406 2.648438 -1 4.546875 -1 C 6.453125 -1 8.472656 -1.390625 10.609375 -2.171875 C 12.753906 -2.960938 14.738281 -3.953125 16.5625 -5.140625 C 18.394531 -6.335938 20.066406 -7.640625 21.578125 -9.046875 C 23.085938 -10.453125 24.394531 -11.773438 25.5 -13.015625 C 26.601562 -14.253906 27.472656 -15.304688 28.109375 -16.171875 C 28.753906 -17.046875 29.132812 -17.554688 29.25 -17.703125 L 30.21875 -16.96875 L 29.03125 -15.390625 C 23.570312 -8.210938 17.46875 -3.398438 10.71875 -0.953125 C 8.457031 -0.140625 6.320312 0.265625 4.3125 0.265625 C 2.3125 0.265625 0.742188 0.0625 -0.390625 -0.34375 C -1.523438 -0.75 -2.46875 -1.300781 -3.21875 -2 C -4.675781 -3.425781 -5.40625 -5.203125 -5.40625 -7.328125 C -5.40625 -11.484375 -3.601562 -15.710938 0 -20.015625 C 2.820312 -23.390625 6.164062 -25.976562 10.03125 -27.78125 C 13.164062 -29.226562 16.21875 -29.925781 19.1875 -29.875 C 21.800781 -29.78125 23.457031 -28.890625 24.15625 -27.203125 C 24.851562 -25.492188 24.472656 -23.925781 23.015625 -22.5 C 22.054688 -21.507812 21.128906 -21.015625 20.234375 -21.015625 C 18.140625 -21.015625 17.0625 -21.875 17 -23.59375 C 16.976562 -24.40625 17.289062 -25.078125 17.9375 -25.609375 C 18.59375 -26.148438 19.238281 -26.453125 19.875 -26.515625 C 20.8125 -26.566406 21.6875 -26.40625 22.5 -26.03125 Z M 22.5 -26.203125 "/></g></g></g><g fill="#fcff79" fill-opacity="1"><g transform="translate(259.121555, 266.556647)"><g><path d="M -4.359375 -2.53125 C -4.359375 -1.65625 -3.660156 -1.203125 -2.265625 -1.171875 C -0.867188 -1.148438 0.53125 -1.457031 1.9375 -2.09375 C 3.351562 -2.726562 4.753906 -3.539062 6.140625 -4.53125 C 7.535156 -5.519531 8.890625 -6.628906 10.203125 -7.859375 C 11.515625 -9.097656 12.734375 -10.328125 13.859375 -11.546875 C 14.992188 -12.773438 16.015625 -13.925781 16.921875 -15 L 19.1875 -17.703125 L 20.140625 -16.96875 L 17.875 -14.34375 C 9.769531 -4.71875 2.953125 0.09375 -2.578125 0.09375 C -4.171875 0.09375 -5.367188 -0.222656 -6.171875 -0.859375 C -6.972656 -1.503906 -7.375 -2.203125 -7.375 -2.953125 C -7.375 -3.710938 -7.335938 -4.335938 -7.265625 -4.828125 C -7.191406 -5.328125 -7.035156 -5.875 -6.796875 -6.46875 C -6.566406 -7.070312 -6.222656 -7.78125 -5.765625 -8.59375 C -5.316406 -9.40625 -4.71875 -10.390625 -3.96875 -11.546875 L 2.828125 -21.359375 L 14.078125 -37.1875 L 10.640625 -37.1875 C 9.765625 -37.1875 9.328125 -37.394531 9.328125 -37.8125 C 9.328125 -38.238281 9.878906 -38.453125 10.984375 -38.453125 L 14.953125 -38.453125 L 23.015625 -49.796875 C 25.054688 -49.472656 27.078125 -49.472656 29.078125 -49.796875 L 20.671875 -38.453125 L 31.921875 -38.453125 C 32.734375 -38.453125 33.140625 -38.238281 33.140625 -37.8125 C 33.140625 -37.394531 32.773438 -37.1875 32.046875 -37.1875 L 19.703125 -37.1875 L 1.65625 -12.640625 C -1.457031 -8.253906 -3.238281 -5.550781 -3.6875 -4.53125 C -4.132812 -3.519531 -4.359375 -2.851562 -4.359375 -2.53125 Z M -4.359375 -2.53125 "/></g></g></g><g fill="#fcff79" fill-opacity="1"><g transform="translate(275.141097, 266.556647)"><g><path d="M 13.421875 -8.015625 C 13.773438 -7.960938 14.21875 -7.9375 14.75 -7.9375 C 15.289062 -7.9375 15.9375 -8.140625 16.6875 -8.546875 C 17.445312 -8.953125 18.226562 -9.472656 19.03125 -10.109375 C 19.832031 -10.753906 20.625 -11.460938 21.40625 -12.234375 C 22.1875 -13.003906 22.90625 -13.742188 23.5625 -14.453125 C 24.21875 -15.160156 24.796875 -15.804688 25.296875 -16.390625 L 26.296875 -17.703125 L 27.25 -16.96875 C 26.90625 -16.613281 26.457031 -16.128906 25.90625 -15.515625 L 24.0625 -13.421875 C 20.019531 -9.066406 16.820312 -6.890625 14.46875 -6.890625 L 13.734375 -6.890625 C 13.503906 -6.890625 13.269531 -6.914062 13.03125 -6.96875 C 10.59375 -1.65625 5.40625 1 -2.53125 1 C -5.988281 1 -8.503906 0.171875 -10.078125 -1.484375 C -10.742188 -2.210938 -11.078125 -3.140625 -11.078125 -4.265625 C -11.078125 -5.398438 -10.804688 -6.367188 -10.265625 -7.171875 C -9.734375 -7.972656 -9.101562 -8.632812 -8.375 -9.15625 C -6.882812 -10.226562 -5.550781 -10.765625 -4.375 -10.765625 C -3.195312 -10.765625 -2.609375 -10.210938 -2.609375 -9.109375 C -2.703125 -8.359375 -3.34375 -7.789062 -4.53125 -7.40625 C -4.90625 -7.289062 -5.273438 -7.234375 -5.640625 -7.234375 C -6.003906 -7.234375 -6.351562 -7.359375 -6.6875 -7.609375 C -7.019531 -7.859375 -7.289062 -8.039062 -7.5 -8.15625 C -7.675781 -7.976562 -7.898438 -7.769531 -8.171875 -7.53125 C -8.453125 -7.300781 -8.722656 -7.03125 -8.984375 -6.71875 C -9.617188 -5.925781 -9.9375 -5.113281 -9.9375 -4.28125 C -9.9375 -3.457031 -9.660156 -2.796875 -9.109375 -2.296875 C -8.554688 -1.804688 -7.90625 -1.429688 -7.15625 -1.171875 C -6.019531 -0.765625 -4.832031 -0.5625 -3.59375 -0.5625 C -2.363281 -0.5625 -1.085938 -0.820312 0.234375 -1.34375 C 1.554688 -1.875 2.859375 -2.75 4.140625 -3.96875 C 7.660156 -7.3125 9.566406 -12.269531 9.859375 -18.84375 C 10.023438 -23.257812 10.5625 -26.71875 11.46875 -29.21875 C 11.5 -29.300781 11.515625 -29.429688 11.515625 -29.609375 L 1.21875 -16.96875 C 0.632812 -16.269531 0.207031 -15.816406 -0.0625 -15.609375 C -0.34375 -15.398438 -0.484375 -15.296875 -0.484375 -15.296875 C -0.828125 -15.273438 -1.054688 -15.363281 -1.171875 -15.5625 C -1.234375 -15.707031 -1.101562 -15.984375 -0.78125 -16.390625 C 6.71875 -25.347656 10.929688 -30.4375 11.859375 -31.65625 C 12.328125 -33.925781 13.082031 -35.0625 14.125 -35.0625 C 14.625 -35.0625 15.039062 -34.925781 15.375 -34.65625 C 15.707031 -34.394531 15.875 -34.0625 15.875 -33.65625 C 15.84375 -33.101562 15.394531 -32.328125 14.53125 -31.328125 C 13.675781 -30.328125 13.15625 -29.6875 12.96875 -29.40625 C 12.78125 -29.132812 12.65625 -28.898438 12.59375 -28.703125 C 12.539062 -28.515625 12.515625 -28.335938 12.515625 -28.171875 L 12.515625 -27.640625 C 12.484375 -26.859375 12.554688 -25.929688 12.734375 -24.859375 L 13.828125 -17.609375 C 14.460938 -13.660156 14.328125 -10.460938 13.421875 -8.015625 Z M 13.421875 -8.015625 "/></g></g></g><g transform="matrix(1, 0, 0, 1, 25, 80)"><g clip-path="url(#9ce987883f)"><g fill="#fcff79" fill-opacity="1"><g transform="translate(1.235901, 122.85881)"><g><path d="M 106.421875 -38.84375 C 106.421875 -25.65625 102.257812 -15.601562 93.9375 -8.6875 C 85.625 -1.769531 73.800781 1.6875 58.46875 1.6875 C 43.132812 1.6875 31.285156 -1.769531 22.921875 -8.6875 C 14.554688 -15.601562 10.375 -25.65625 10.375 -38.84375 L 10.375 -96.46875 L 41.359375 -96.46875 L 41.359375 -39.265625 C 41.359375 -33.835938 42.804688 -29.507812 45.703125 -26.28125 C 48.609375 -23.0625 52.816406 -21.453125 58.328125 -21.453125 C 63.847656 -21.453125 68.078125 -23.085938 71.015625 -26.359375 C 73.960938 -29.628906 75.4375 -33.929688 75.4375 -39.265625 L 75.4375 -96.46875 L 106.421875 -96.46875 Z M 106.421875 -38.84375 "/></g></g></g><g fill="#fcff79" fill-opacity="1"><g transform="translate(107.939887, 122.85881)"><g><path d="M 58.890625 -98.15625 C 68.148438 -98.15625 76.46875 -96.75 83.84375 -93.9375 C 91.226562 -91.132812 97.09375 -87 101.4375 -81.53125 C 105.789062 -76.0625 107.96875 -69.40625 107.96875 -61.5625 L 78.375 -61.5625 C 78.375 -65.570312 76.597656 -68.816406 73.046875 -71.296875 C 69.492188 -73.773438 65.195312 -75.015625 60.15625 -75.015625 C 52.863281 -75.015625 47.347656 -73.070312 43.609375 -69.1875 C 39.867188 -65.3125 38 -59.820312 38 -52.71875 L 38 -43.75 C 38 -36.644531 39.867188 -31.148438 43.609375 -27.265625 C 47.347656 -23.390625 52.863281 -21.453125 60.15625 -21.453125 C 65.195312 -21.453125 69.492188 -22.644531 73.046875 -25.03125 C 76.597656 -27.414062 78.375 -30.476562 78.375 -34.21875 L 56.515625 -34.21875 L 56.515625 -53.84375 L 107.96875 -53.84375 L 107.96875 0 L 91.984375 0 L 88.90625 -9.53125 C 80.113281 -2.050781 68.613281 1.6875 54.40625 1.6875 C 38.414062 1.6875 26.398438 -2.492188 18.359375 -10.859375 C 10.328125 -19.234375 6.3125 -31.691406 6.3125 -48.234375 C 6.3125 -64.597656 10.867188 -77.007812 19.984375 -85.46875 C 29.097656 -93.925781 42.066406 -98.15625 58.890625 -98.15625 Z M 58.890625 -98.15625 "/></g></g></g><g fill="#fcff79" fill-opacity="1"><g transform="translate(214.643872, 122.85881)"><g><path d="M 56.375 -98.15625 C 70.675781 -98.15625 81.984375 -94.578125 90.296875 -87.421875 C 98.617188 -80.273438 102.78125 -70.0625 102.78125 -56.78125 L 73.1875 -56.78125 C 73.1875 -62.394531 71.710938 -66.835938 68.765625 -70.109375 C 65.828125 -73.378906 61.648438 -75.015625 56.234375 -75.015625 C 49.960938 -75.015625 45.351562 -73.050781 42.40625 -69.125 C 39.46875 -65.195312 38 -59.726562 38 -52.71875 L 38 -43.75 C 38 -36.832031 39.46875 -31.382812 42.40625 -27.40625 C 45.351562 -23.4375 49.867188 -21.453125 55.953125 -21.453125 C 61.929688 -21.453125 66.460938 -22.992188 69.546875 -26.078125 C 72.628906 -29.160156 74.171875 -33.507812 74.171875 -39.125 L 102.78125 -39.125 C 102.78125 -25.9375 98.734375 -15.835938 90.640625 -8.828125 C 82.554688 -1.816406 71.132812 1.6875 56.375 1.6875 C 39.914062 1.6875 27.457031 -2.519531 19 -10.9375 C 10.539062 -19.351562 6.3125 -31.785156 6.3125 -48.234375 C 6.3125 -64.679688 10.539062 -77.113281 19 -85.53125 C 27.457031 -93.945312 39.914062 -98.15625 56.375 -98.15625 Z M 56.375 -98.15625 "/></g></g></g></g></g></svg>