<svg xmlns="http://www.w3.org/2000/svg" xmlns:xlink="http://www.w3.org/1999/xlink" width="500" zoomAndPan="magnify" viewBox="0 0 375 374.999991" height="500" preserveAspectRatio="xMidYMid meet" version="1.0"><defs><g/><clipPath id="5cc196e566"><rect x="0" width="320" y="0" height="153"/></clipPath></defs><rect x="-37.5" width="450" fill="#ffffff" y="-37.499999" height="449.999989" fill-opacity="1"/><rect x="-37.5" width="450" fill="#d2d5ff" y="-37.499999" height="449.999989" fill-opacity="1"/><g fill="#fcff79" fill-opacity="1"><g transform="translate(87.577634, 268.135588)"><g><path d="M 32.4375 -25.375 C 19.789062 -8.394531 8.773438 0.09375 -0.609375 0.09375 C -5.171875 0.09375 -8.078125 -1.128906 -9.328125 -3.578125 C -9.679688 -4.273438 -9.859375 -4.992188 -9.859375 -5.734375 C -9.859375 -6.472656 -9.722656 -7.070312 -9.453125 -7.53125 C -9.191406 -8 -8.859375 -8.378906 -8.453125 -8.671875 C -7.734375 -9.222656 -6.832031 -9.5 -5.75 -9.5 C -5.3125 -9.5 -4.835938 -9.335938 -4.328125 -9.015625 ..."/></g></g></g></g></svg>